Patient4_TMGait_0pt4_02_right_08_EMG.mot
version=1
nRows=13
nColumns=33
inDegrees=no
endheader
time	1LAddLong	2LGlutMax	3LGlutMed	4LIliopsoas	5LSemiMemb	6LBicFemLong	7LRecFem	8LVastMed	9LVastLat	10LGasMed	11LTibAnt	12lTibPost	13LPeroneusLong	14LSol	15LExtDigLong	16LFlexDigLong	17RAddLong	18RGlutMax	19RGlutMed	20RIliopsoas	21RSemiMemb	22RBicFemLong	23RRecFem	24RVastMed	25RVastLat	26RGasMed	27RTibAnt	28RTibPost	29RPeroneusLong	30RSol	31RExtDigLong	32RFlexDigLong
10.577	-0.001373	0.026093	-0.15182	0.009918	-0.001831	-0.036011	0.28473	0.004883	0.1387	-0.092773	-0.007172	-0.044403	-0.066223	-0.87616	0.019684	-0.39932	-0.045166	-0.8284	-0.28397	-0.039215	-0.15747	-0.10864	0.18463	0.10147	-0.019989	0.15198	-0.1033	0.12985	0.50201	-0.44525	-0.000916	-0.00824
10.578	-0.005951	0.016479	-0.16983	0.011749	0.000305	-0.039673	0.35248	0.003052	0.13382	-0.22446	0.000916	-0.087585	-0.061798	-0.87814	0.006561	0.089417	-0.05661	-0.84656	0.29938	-0.005951	0.085449	-0.056763	0.15549	0.16525	-0.011444	0.085449	-0.11963	0.039063	1.1652	-0.64377	-0.003052	0.010071
10.579	0.005798	-0.047455	-0.17075	0.00473	-0.003052	-0.041656	0.38132	0.005341	0.12573	-0.14008	0.011444	0.039063	-0.030975	0.17181	0.016174	0.1651	-0.005798	-0.91034	0.4744	0.014343	0.002594	-0.1326	0.28763	0.10101	-0.033417	0.048676	-0.082397	-0.029602	-0.18997	-0.46555	-0.005341	0.00061
10.58	-0.003967	-0.083466	-0.17502	-0.004425	-0.00946	-0.056458	0.38361	0.00351	0.13092	0.29327	0.001221	0.019684	0.018616	0.72372	0.028076	-0.071411	0.049286	-1.0045	-0.44784	0.11536	-0.046082	-0.16296	0.30487	-0.009766	0.042877	0.017853	-0.079956	-0.04303	1.5688	-0.27451	0.008087	-0.002899
10.581	-0.000763	-0.092926	-0.17136	-0.005341	0.002899	-0.040894	0.44647	-0.001831	0.12192	0.64331	-0.004578	-0.007782	-0.082245	0.5426	0.011749	-0.15411	0.057983	-0.96451	-0.68817	0.077209	0	-0.11322	0.27145	-0.10208	0.091248	0.001221	-0.023193	0.003204	0.21393	-0.26962	-0.004883	-0.002136
10.582	-0.002441	-0.061035	-0.16998	-0.001068	-0.00824	-0.035095	0.53253	0.005493	0.12833	0.27176	0.005798	0.004272	-0.001678	0.26581	-0.059052	0.065155	0.046692	-0.96359	-0.53116	-0.11597	0.1561	-0.13336	0.28976	-0.092163	0.060883	0.016785	0.19165	0.00351	1.2918	-0.41489	-0.003052	-0.002289
10.583	-0.005493	-0.028229	-0.15259	-0.00351	0.002747	-0.052795	0.49927	0.008698	0.13809	-0.32288	-0.000458	0.029144	-0.056763	0.077972	-0.093842	-0.002136	0.008545	-0.97717	0.57312	-0.17258	0.28625	-0.044098	0.30853	-0.041046	0.088501	0.000305	0.019531	-0.003967	0.11841	-0.045624	-0.002594	-0.002136
10.584	-0.002136	-0.042267	-0.17929	0.023041	-0.002747	-0.044556	0.41443	0.004578	0.1564	-0.31509	0.002747	0.057068	-0.035553	0.38727	-0.070496	-0.002136	0	-1.0982	-0.93262	0.018311	0.077515	0.019531	0.32638	0.020752	0.12482	0.002899	-0.13321	-0.010376	-0.42877	0.065918	-0.003662	-0.007629
10.585	-0.000458	0.013123	-0.17929	0.031586	0.001831	-0.037079	0.34882	0.006866	0.17471	-0.224	0.005646	0.1239	0.10559	0.62408	-0.001831	-0.014496	0.000458	-1.0822	-1.0818	0.001678	0.038605	-0.039978	0.2066	0.10147	0.45807	0.038757	-0.20142	-0.007477	-1.0678	0.12497	-0.001373	-0.011292
10.586	0.004883	0.030365	-0.17716	0.020752	-0.002441	-0.038147	0.33478	0.00885	0.18662	-0.15533	0.003815	0.003662	0.081329	0.38895	-0.014038	0.002594	0.008392	-1.1789	-0.60165	-0.067139	0.025635	0.10117	0.215	0.098114	0.09964	0.028381	-0.03891	-0.006714	-1.4246	0.1976	-0.002136	-0.007782
10.587	0.003815	0.024719	-0.18707	0.001526	-0.001831	-0.05188	0.31052	0.006409	0.18707	-0.032654	-0.001373	-0.016785	0.053711	0.16495	-0.026703	0.004272	-0.005188	-1.1427	-0.50674	0.020142	-0.001068	0.25909	0.28427	0.12512	-0.26749	0.028381	0.11612	-0.01297	0.090485	-0.014191	0.001373	-0.021667
10.588	0.007782	0.02594	-0.19409	0.013275	-0.001831	-0.039978	0.29511	0.020905	0.17716	-0.057526	0.000305	-0.025177	0.078278	0.02243	-0.028687	-0.004425	-0.001831	-1.0793	0.68787	0.066681	-0.048676	0.28625	0.13641	0.17181	0.079956	0.038605	0.03479	-0.012207	-1.4677	-0.11719	-0.006714	-0.011292
10.589	0.006104	0.010529	-0.21454	0.00946	-0.002747	-0.048523	0.23285	0.016785	0.20004	-0.082703	-0.000458	0.027924	0.076752	-0.14893	-0.017395	-0.019684	-0.005188	-1.1308	0.30029	0.085907	-0.11566	0.30075	-0.023804	0.075684	0.037842	0.024414	-0.018921	-0.01297	-0.95734	-0.048523	-0.005951	-0.012665
